<mxfile host="app.diagrams.net" modified="2023-10-24T07:34:41.811Z" agent="Mozilla/5.0 (Macintosh; Intel Mac OS X 10_15_7) AppleWebKit/605.1.15 (KHTML, like Gecko) Version/17.0 Safari/605.1.15" etag="-P3pAezy5BRex-bxOgWK" version="22.0.6" type="github" pages="2">
  <diagram id="ai941lXSbLcec5KLdyCX" name="Presentation">
    <mxGraphModel dx="3354" dy="1832" grid="1" gridSize="10" guides="1" tooltips="1" connect="1" arrows="1" fold="1" page="1" pageScale="1" pageWidth="1200" pageHeight="1600" math="0" shadow="0">
      <root>
        <mxCell id="0" />
        <mxCell id="1" parent="0" />
      </root>
    </mxGraphModel>
  </diagram>
  <diagram name="Elements" id="mAW6w7WBJ3kH8a0hMK1T">
    <mxGraphModel dx="3354" dy="1832" grid="1" gridSize="10" guides="1" tooltips="1" connect="1" arrows="1" fold="1" page="1" pageScale="1" pageWidth="1200" pageHeight="1600" math="0" shadow="0">
      <root>
        <mxCell id="0" />
        <mxCell id="1" parent="0" />
        <mxCell id="6k_ZNdctovudq3fOSNru-1" value="&lt;font style=&quot;font-size: 55px;&quot;&gt;Elements&lt;/font&gt;" style="text;html=1;strokeColor=none;fillColor=none;align=center;verticalAlign=middle;whiteSpace=wrap;rounded=0;" parent="1" vertex="1">
          <mxGeometry x="475" y="50" width="250" height="30" as="geometry" />
        </mxCell>
        <mxCell id="6k_ZNdctovudq3fOSNru-2" value="&lt;font style=&quot;font-size: 50px;&quot;&gt;BI&lt;br&gt;Engineer&lt;br&gt;&lt;/font&gt;" style="shape=umlActor;verticalLabelPosition=bottom;verticalAlign=top;html=1;outlineConnect=0;" parent="1" vertex="1">
          <mxGeometry x="170" y="200" width="110" height="180" as="geometry" />
        </mxCell>
        <mxCell id="6k_ZNdctovudq3fOSNru-4" value="&lt;font style=&quot;font-size: 50px;&quot;&gt;Data&lt;br&gt;Engineer&lt;br&gt;&lt;/font&gt;" style="shape=umlActor;verticalLabelPosition=bottom;verticalAlign=top;html=1;outlineConnect=0;" parent="1" vertex="1">
          <mxGeometry x="540" y="200" width="110" height="180" as="geometry" />
        </mxCell>
        <mxCell id="6k_ZNdctovudq3fOSNru-5" value="&lt;font style=&quot;font-size: 50px;&quot;&gt;Data Scientist&lt;br&gt;&lt;/font&gt;" style="shape=umlActor;verticalLabelPosition=bottom;verticalAlign=top;html=1;outlineConnect=0;" parent="1" vertex="1">
          <mxGeometry x="890" y="200" width="110" height="180" as="geometry" />
        </mxCell>
        <mxCell id="6k_ZNdctovudq3fOSNru-6" value="&lt;font style=&quot;font-size: 50px;&quot;&gt;Machine Learning&amp;nbsp;&lt;br&gt;Engineer&lt;br&gt;&lt;/font&gt;" style="shape=umlActor;verticalLabelPosition=bottom;verticalAlign=top;html=1;outlineConnect=0;" parent="1" vertex="1">
          <mxGeometry x="170" y="560" width="110" height="180" as="geometry" />
        </mxCell>
        <mxCell id="6k_ZNdctovudq3fOSNru-7" value="&lt;font style=&quot;font-size: 55px;&quot;&gt;Database&lt;/font&gt;" style="shape=cylinder3;whiteSpace=wrap;html=1;boundedLbl=1;backgroundOutline=1;size=15;" parent="1" vertex="1">
          <mxGeometry x="610" y="620" width="330" height="230" as="geometry" />
        </mxCell>
        <mxCell id="6k_ZNdctovudq3fOSNru-8" value="&lt;font style=&quot;font-size: 55px;&quot;&gt;Front End (Browser)&lt;/font&gt;" style="sketch=0;aspect=fixed;pointerEvents=1;shadow=0;dashed=0;html=1;strokeColor=none;labelPosition=center;verticalLabelPosition=bottom;verticalAlign=top;align=center;fillColor=#00188D;shape=mxgraph.azure.computer" parent="1" vertex="1">
          <mxGeometry x="170" y="980" width="233.33" height="210" as="geometry" />
        </mxCell>
        <mxCell id="6k_ZNdctovudq3fOSNru-9" value="&lt;font style=&quot;font-size: 50px;&quot;&gt;Front End&lt;br&gt;Engineer&lt;br&gt;&lt;/font&gt;" style="shape=umlActor;verticalLabelPosition=bottom;verticalAlign=top;html=1;outlineConnect=0;" parent="1" vertex="1">
          <mxGeometry x="1290" y="200" width="110" height="180" as="geometry" />
        </mxCell>
        <mxCell id="6k_ZNdctovudq3fOSNru-10" value="&lt;font style=&quot;font-size: 50px;&quot;&gt;Title&lt;/font&gt;" style="rounded=1;whiteSpace=wrap;html=1;" parent="1" vertex="1">
          <mxGeometry x="670" y="990" width="320" height="210" as="geometry" />
        </mxCell>
        <mxCell id="6k_ZNdctovudq3fOSNru-11" value="&lt;font color=&quot;#000000&quot; style=&quot;font-size: 55px;&quot;&gt;Micro Services&lt;/font&gt;" style="image;aspect=fixed;perimeter=ellipsePerimeter;html=1;align=center;shadow=0;dashed=0;fontColor=#4277BB;labelBackgroundColor=default;fontSize=12;spacingTop=3;image=img/lib/ibm/applications/microservice.svg;" parent="1" vertex="1">
          <mxGeometry x="1250" y="705" width="294.55" height="215" as="geometry" />
        </mxCell>
        <mxCell id="6k_ZNdctovudq3fOSNru-12" value="&lt;font style=&quot;font-size: 50px;&quot;&gt;Backend&lt;br&gt;Engineer&lt;br&gt;&lt;/font&gt;" style="shape=umlActor;verticalLabelPosition=bottom;verticalAlign=top;html=1;outlineConnect=0;" parent="1" vertex="1">
          <mxGeometry x="210" y="1320" width="110" height="180" as="geometry" />
        </mxCell>
        <mxCell id="6k_ZNdctovudq3fOSNru-13" value="&lt;font style=&quot;font-size: 50px;&quot;&gt;Full Stack&amp;nbsp;&lt;br&gt;Engineer&lt;br&gt;&lt;/font&gt;" style="shape=umlActor;verticalLabelPosition=bottom;verticalAlign=top;html=1;outlineConnect=0;" parent="1" vertex="1">
          <mxGeometry x="550" y="1320" width="110" height="180" as="geometry" />
        </mxCell>
        <mxCell id="6k_ZNdctovudq3fOSNru-14" value="" style="shape=flexArrow;endArrow=classic;startArrow=classic;html=1;rounded=0;" parent="1" edge="1">
          <mxGeometry width="100" height="100" relative="1" as="geometry">
            <mxPoint x="830" y="1415" as="sourcePoint" />
            <mxPoint x="2070" y="1405" as="targetPoint" />
          </mxGeometry>
        </mxCell>
      </root>
    </mxGraphModel>
  </diagram>
</mxfile>
